<?xml version="1.0" encoding="UTF-8" standalone="no"?>
<!-- Created with Inkscape (http://www.inkscape.org/) -->

<svg
   xmlns:dc="http://purl.org/dc/elements/1.1/"
   xmlns:cc="http://creativecommons.org/ns#"
   xmlns:rdf="http://www.w3.org/1999/02/22-rdf-syntax-ns#"
   xmlns:svg="http://www.w3.org/2000/svg"
   xmlns="http://www.w3.org/2000/svg"
   xmlns:sodipodi="http://sodipodi.sourceforge.net/DTD/sodipodi-0.dtd"
   xmlns:inkscape="http://www.inkscape.org/namespaces/inkscape"
   id="svg3186"
   version="1.1"
   inkscape:version="0.48.3.1 r9886"
   width="199.34"
   height="105.79"
   xml:space="preserve"
   sodipodi:docname="SIAMSC_Delft.svg"><metadata
     id="metadata3192"><rdf:RDF><cc:Work
         rdf:about=""><dc:format>image/svg+xml</dc:format><dc:type
           rdf:resource="http://purl.org/dc/dcmitype/StillImage" /><dc:title /></cc:Work></rdf:RDF></metadata><defs
     id="defs3190" /><sodipodi:namedview
     pagecolor="#ffffff"
     bordercolor="#666666"
     borderopacity="1"
     objecttolerance="10"
     gridtolerance="10"
     guidetolerance="10"
     inkscape:pageopacity="0"
     inkscape:pageshadow="2"
     inkscape:window-width="1276"
     inkscape:window-height="708"
     id="namedview3188"
     showgrid="false"
     fit-margin-top="0"
     fit-margin-left="0"
     fit-margin-right="0"
     fit-margin-bottom="0"
     inkscape:zoom="3.7122529"
     inkscape:cx="85.125921"
     inkscape:cy="48.869198"
     inkscape:window-x="0"
     inkscape:window-y="27"
     inkscape:window-maximized="0"
     inkscape:current-layer="g3194"
     borderlayer="false" /><g
     id="g3194"
     inkscape:groupmode="layer"
     inkscape:label="siam"
     transform="matrix(1.25,0,0,-1.25,0,107.03997)"><g
   id="g3196"
   style="fill:#000000"
   transform="translate(-104.83972,-5.4858002)"><path
   style="fill:#00a6d6;fill-opacity:1;stroke:#00a6d6;stroke-width:0.30476662999999998;stroke-opacity:1"
   d="m 223.53019,66.327309 c -2.83071,0.01126 -5.7455,-0.138854 -6.55,-0.475 -0.92292,-0.38562 -1.05,-0.38562 -1.05,0 0,0.362975 -0.71844,0.425 -3.975,0.425 l -3.95,0 0,-13.1 c 0,-14.873629 -0.002,-14.963259 -2.025,-15.525 -1.53771,-0.42699 -7.99125,-0.405089 -9.225,0.025 -1.84003,0.641438 -1.85,0.827288 -1.85,14 0,10.439584 -0.0689,12.020212 -0.5,12.75 -1.02172,1.729638 -0.69214,1.70444 -15.125,1.8 l -13.325,0.075 0,-4.125 0,-4.125 9.7,0 9.7,0 0.725,-0.775 c 1.02481,-1.090862 1.05355,-3.470558 0.05,-4.475 -0.68784,-0.688451 -0.78195,-0.698876 -10.975,-0.85 -11.25689,-0.166896 -11.21593,-0.161952 -12.1,-2.025 -0.34326,-0.723359 -0.45,-2.084036 -0.45,-5.525 0,-2.519986 -0.15845,-4.936925 -0.325,-5.375 -0.85339,-2.244566 -7.07162,-2.244566 -7.925,0 -0.18372,0.48322 -0.3,5.994066 -0.3,14.025 l 0,13.225 -4.1,0 -4.125,0 0,-13.65 0,-13.675 -0.775,-0.725 c -0.70247,-0.660512 -1.1218,-0.756356 -3.825,-0.85 l -3.025,-0.1 0,5.85 c 0,4.567491 -0.0931,6.047881 -0.45,6.8 -0.89046,1.876499 -0.81313,1.875431 -12.4,1.975 l -10.55,0.1 -0.8,0.775 c -1.10726,1.107265 -1.11248,3.43752 -0.025,4.525 l 0.75,0.75 11.725,0 11.75,0 0,4.125 0,4.1 -14.85,0 c -16.00503,-0.01853 -16.42629,-0.05225 -17.575,-1.6 -0.60452,-0.814513 -0.63205,-1.3024 -0.725,-9.15 -0.11386,-9.613153 -0.009,-10.26472 1.775,-11.175 1.12502,-0.573941 1.78067,-0.625 11.5,-0.625 10.31567,0 10.32766,0.01037 10.95,-0.675 0.85404,-0.940538 1.09345,-2.16385 0.7,-3.625 -0.55708,-2.06883 -0.75782,-2.1 -13.7,-2.1 l -11.275,0 0,-3.95 0,-3.975 15.975,0 c 14.11953,0 16.0268,0.0518 16.45,0.475 0.43538,0.435381 0.51462,0.435381 0.95,0 0.41846,-0.418463 1.9258,-0.475 11.975,-0.475 9.28967,0 11.61109,0.08579 12.075,0.425 0.48793,0.356788 0.64321,0.356788 1,0 0.62794,-0.627948 29.56579,-0.62827 30.425,0 0.5002,0.365753 0.65281,0.365753 1.175,0 0.95157,-0.666513 18.3415,-0.621352 19.3,0.05 1.57286,1.101668 1.6,1.285072 1.6,15.225 l 0,12.95 2.725,0 c 4.29806,0 3.975,1.19419 3.975,-15.125 l 0,-13.525 4.125,0 4.1,0 0,14.325 0,14.325 2.325,0 c 4.51436,0 4.375,0.383392 4.375,-14.65 l 0,-11.925 1.05,-1.025 1.025,-1.05 12.075,0 12.075,0 0,3.975 0,3.95 -7.775,0 c -8.26555,0 -9.4783,0.173212 -10.175,1.475 -0.2198,0.410713 -0.35,4.582655 -0.35,12.55 0,9.977462 -0.0679,12.094866 -0.45,12.9 -0.82361,1.735612 -1.27621,1.861828 -7.3,1.975 -4.71527,0.08859 -5.61995,0.04582 -6.45,-0.4 -0.89133,-0.478716 -1.02695,-0.478915 -1.675,-0.025 -0.48726,0.341286 -3.2443,0.513737 -6.075,0.525 z m -48.2,-22.6 c 0.90213,0.01295 2.05557,0 3.55,0 6.34343,0 6.47873,-0.01208 7.125,-0.7 1.48612,-1.581904 1.08378,-4.519243 -0.725,-5.275 -0.75439,-0.315206 -2.4556,-0.41268 -6.45,-0.4 -6.51105,0.02066 -7.36933,0.22792 -7.925,1.925 -0.50529,1.543208 -0.21357,3.092055 0.75,3.85 0.53321,0.419425 0.9686,0.561144 3.675,0.6 z"
   id="path3020"
   inkscape:connector-curvature="0" /><text
   xml:space="preserve"
   style="font-size:40px;font-style:normal;font-weight:normal;line-height:125%;letter-spacing:0px;word-spacing:0px;fill:#000000;fill-opacity:1;stroke:none;font-family:Sans"
   x="38.476788"
   y="101.50318"
   id="text3025"
   sodipodi:linespacing="125%"
   transform="matrix(0.8,0,0,-0.8,0,64.830845)"><tspan
     sodipodi:role="line"
     id="tspan3027"
     x="38.476788"
     y="101.50318" /></text>





</g><path
   inkscape:connector-curvature="0"
   d="m 57.927139,72.467731 c -1.680948,-0.527815 -3.417798,-0.101403 -3.412598,2.142461 0.0052,3.428198 8.053731,6.30258 9.166563,9.299166 0.278207,0.746222 0.293808,1.361139 -0.0611,1.340339 -0.258708,-0.0156 -0.0559,-0.386111 -0.620118,-0.954228 -3.330695,-3.331995 -8.916955,-3.326795 -13.208377,-5.24565 -2.80808,-1.264936 -11.045116,-5.140347 -9.145762,-13.788195 0.0858,-0.405611 0.33541,-1.782351 0.583717,-1.782351 0.289908,0 0.289908,0.817724 0.279508,1.808352 -0.0611,5.149448 6.033473,6.585989 8.01863,9.947885 0.239207,0.401711 0.650018,0.964628 0.746221,0.70592 0.0455,-0.127403 0.0156,-0.314609 -0.0663,-0.676019 -0.618818,-2.762579 -3.5088,-4.53453 -2.691077,-6.509286 1.060831,-2.564974 4.128917,-0.655219 5.067544,0.994528 0.254807,0.452413 0.391311,0.741021 0.559016,0.68642 0.132604,-0.0468 0.127404,-0.564217 0.0455,-1.03613 -0.501814,-2.971885 -1.188234,-4.642433 -3.365795,-6.337681 -0.69162,-0.538216 -1.788851,-0.655219 -1.645847,-1.072531 0.0351,-0.106603 0.507015,-0.0962 0.884025,-0.0559 5.798165,0.371811 10.643404,7.206107 11.933041,11.670434 0.132603,0.314609 0.172905,0.609718 0.0312,0.721521 -0.178106,0.131304 -0.431613,-0.178105 -0.68642,-0.406912 -0.664319,-0.578516 -1.574345,-1.188234 -2.411569,-1.452141"
   style="fill:#050301;fill-opacity:1;fill-rule:nonzero;stroke:none"
   id="path3290" /><text
   xml:space="preserve"
   style="font-size:13px;font-style:normal;font-weight:normal;line-height:125%;letter-spacing:0px;word-spacing:0px;fill:#000000;fill-opacity:1;stroke:none;font-family:Sans"
   x="8.000124"
   y="82.170586"
   id="text2995"
   sodipodi:linespacing="125%"
   transform="matrix(0.8,0,0,-0.8,0,85.631976)"><tspan
     sodipodi:role="line"
     id="tspan2997" /></text>




<text
   xml:space="preserve"
   style="font-size:27.47405624px;font-style:normal;font-weight:normal;line-height:125%;letter-spacing:0px;word-spacing:0px;fill:#000000;fill-opacity:1;stroke:none;font-family:Sans"
   x="0.37213987"
   y="-14.100335"
   id="text2999"
   sodipodi:linespacing="125%"
   transform="scale(0.9960707,-1.0039448)"><tspan
     sodipodi:role="line"
     id="tspan3001"
     x="0.37213987"
     y="-14.100335"
     style="font-size:11.2px;font-weight:normal;-inkscape-font-specification:Sans"><tspan
       style="font-size:11.6px"
       id="tspan3772">Student Chapter at </tspan><tspan
       style="font-weight:bold;-inkscape-font-specification:Sans Bold;font-size:11.6px"
       id="tspan2999">T<tspan
   style="fill:#00a6d6;fill-opacity:1;font-size:11.6px"
   id="tspan2994">U</tspan></tspan><tspan
       style="font-size:11.60000038px"
       id="tspan3774">Delft </tspan></tspan><tspan
     sodipodi:role="line"
     x="0.37213987"
     y="-1.5791302"
     id="tspan3003"
     style="font-size:10.98962116px;font-weight:bold;-inkscape-font-specification:Sans Bold" /></text>




<path
   style="fill:#00a6d6;fill-opacity:1;stroke:#00a6d6;stroke-width:0.26937819;stroke-opacity:1"
   d="m 91.590351,77.26067 c -0.07631,-0.07631 -3.340473,-0.155291 -7.253695,-0.175519 -3.913225,-0.02023 -8.024106,-0.143201 -9.135291,-0.273279 -2.8082,-0.328733 -2.736721,-0.327079 -3.636606,-0.0842 -0.444474,0.119965 -6.929754,0.240576 -14.411733,0.268026 -11.039555,0.0405 -13.820411,-0.0212 -14.753904,-0.327411 -0.632667,-0.207523 -1.268617,-0.304195 -1.413222,-0.214826 -0.685064,0.423393 -2.754802,0.480821 -21.209099,0.588481 l -19.73195356,0.115113 0,-5.020188 0,-5.020192 12.99749856,0.023 c 15.415598,0.02729 15.31443,0.03246 17.161489,-0.876718 0.713351,-0.351132 1.520069,-2.243258 1.456364,-3.415848 -0.08779,-1.615873 -1.332046,-3.312174 -2.522506,-3.438938 C 28.767298,59.368737 23.251779,59.286175 16.880985,59.224706 10.51019,59.163239 4.9667548,59.106336 4.5622393,59.098257 4.1577235,59.090176 3.2738696,58.823683 2.5981193,58.506043 0.44072653,57.491956 0.45884313,57.588428 0.37811725,46.684431 0.29102658,34.920713 0.35906607,34.028759 1.4371752,32.800861 1.8810357,32.295331 2.6887977,31.748062 3.2322019,31.584706 3.8900429,31.386948 10.499051,31.239885 23.009339,31.144625 l 18.789129,-0.14307 0,5.147656 0,5.147657 -14.628268,0 -14.628269,0 -0.882241,0.910241 c -1.518825,1.567029 -1.499234,4.206413 0.04333,5.837657 l 0.878856,0.92938 9.288076,0.03064 c 11.576633,0.0382 16.75962,0.242947 17.6889,0.698792 0.989857,0.485561 1.72044,1.563952 1.897182,2.800374 0.08252,0.57729 0.202516,4.110428 0.266654,7.851418 l 0.116617,6.8018 1.393817,0.04802 c 1.592631,0.05488 1.910398,0.04518 3.967466,-0.121045 1.593523,-0.128771 2.444169,-0.465666 3.420015,-1.35449 l 0.606101,-0.55205 0,-17.058559 0,-17.058559 5.118186,0 5.118186,0 0.01781,6.936489 c 0.0295,11.499598 0.230156,24.626789 0.399326,26.124701 0.127176,1.126109 0.304222,1.50969 0.881182,1.909156 1.536625,1.063902 3.397565,1.424014 5.570838,1.078022 0.939817,-0.14962 2.974358,-1.150212 3.251904,-1.599293 0.218118,-0.352923 0.620812,-5.962452 0.742261,-10.339726 0.08749,-3.153371 0.558181,-4.733797 1.571326,-5.276015 1.088309,-0.582446 3.693962,-0.764756 13.156294,-0.920507 13.714283,-0.22574 14.481023,-0.337187 15.104453,-2.195478 0.57989,-1.728514 0.40699,-2.750592 -0.75631,-4.470809 l -0.68314,-1.010168 -12.220067,0 -12.220072,0 0,-5.107636 0,-5.107636 14.748456,0.106848 c 19.963103,0.144627 19.665173,0.119973 20.709453,1.713742 0.69322,1.057984 0.75042,2.099731 0.78641,14.321002 0.0352,11.96898 0.18821,16.025029 0.67213,17.822194 0.35648,1.323859 1.36139,1.820727 4.15,2.051926 5.56485,0.461375 10.01808,-0.09849 10.68425,-1.343244 0.65554,-1.224884 0.79084,-4.597353 0.77358,-19.281148 l -0.0182,-15.431383 4.79277,0.04927 c 3.63033,0.03732 4.89797,0.139479 5.22651,0.421205 0.35031,0.300397 0.58347,0.309511 1.2122,0.04738 0.50931,-0.212337 3.00256,-0.356022 7.21101,-0.415567 5.18043,-0.0733 6.76086,-0.0087 8.11925,0.331997 1.54103,0.386475 1.8015,0.385467 3.01569,-0.01168 1.11112,-0.363428 2.27513,-0.414076 7.10061,-0.308957 3.17441,0.06915 6.05035,0.13761 6.39099,0.152129 1.41556,0.06034 3.4838,1.371252 3.11216,1.972579 -0.0697,0.112753 0.0147,0.205005 0.18741,0.205005 0.17275,0 0.24581,0.177948 0.16235,0.39544 -0.0835,0.217492 -0.0316,0.469683 0.11521,0.560424 0.14682,0.09074 0.25819,0.670419 0.24749,1.288174 -0.0696,4.017397 0.25887,26.141312 0.41243,27.780048 0.34069,3.635668 0.83747,3.759668 14.60619,3.645829 l 8.14869,-0.06737 0,5.018365 0,5.018362 -15.16173,0 -15.16172,0 -1.41087,-1.428618 -1.41088,-1.428617 -0.0155,-14.127974 c -0.0166,-15.195119 -0.009,-14.920659 -0.47888,-16.606174 -0.49241,-1.765188 -1.23923,-2.117889 -4.67951,-2.21 l -2.89582,-0.07753 0,17.939459 0,17.939457 -5.2582,0 -5.25822,0 0.01,-15.69128 c 0.006,-9.225729 -0.10093,-16.352021 -0.25881,-17.294836 -0.41673,-2.488498 -0.74082,-2.687778 -4.55519,-2.800993 l -3.18377,-0.0945 -0.18187,13.832786 c -0.25627,19.492212 -0.23915,19.096414 -0.87297,20.184708 -0.79952,1.372821 -1.65512,1.656614 -5.33867,1.770798 -8.42039,0.261016 -19.18474,0.03807 -20.03109,-0.414886 -0.38429,-0.205665 -0.78038,-0.21644 -1.25954,-0.03426 -0.38443,0.146162 -0.96816,0.269171 -1.29719,0.273354 -9.16145,0.116498 -16.217923,0.278966 -17.184482,0.395655 -0.677446,0.08179 -1.294152,0.08627 -1.370462,0.01 l -2e-6,-8e-6 z m 4.563296,-10.104775 c 2.454946,-0.167631 4.134573,-0.411497 4.642213,-0.674011 1.07692,-0.556896 1.6127,-1.701843 1.6127,-3.446277 0,-1.171773 -0.1493,-1.660649 -0.76801,-2.514747 -0.49416,-0.682166 -0.99843,-1.074432 -1.41423,-1.100101 -2.924672,-0.180556 -14.718327,-0.0427 -15.552012,0.181788 -1.449546,0.390323 -1.969125,1.080831 -2.182233,2.900141 -0.232355,1.983621 0.390009,3.437072 1.707457,3.987536 0.717882,0.299952 3.643598,0.645619 7.568592,0.894217 0.296316,0.01878 2.2698,-0.08408 4.385523,-0.228546 l 0,0 z"
   id="path3766"
   inkscape:connector-curvature="0"
   transform="matrix(0.8,0,0,-0.8,0,85.631976)" /></g></svg>