<?xml version="1.0" encoding="UTF-8" standalone="no"?>
<!-- Created with Inkscape (http://www.inkscape.org/) -->

<svg
   xmlns:dc="http://purl.org/dc/elements/1.1/"
   xmlns:cc="http://creativecommons.org/ns#"
   xmlns:rdf="http://www.w3.org/1999/02/22-rdf-syntax-ns#"
   xmlns:svg="http://www.w3.org/2000/svg"
   xmlns="http://www.w3.org/2000/svg"
   xmlns:sodipodi="http://sodipodi.sourceforge.net/DTD/sodipodi-0.dtd"
   xmlns:inkscape="http://www.inkscape.org/namespaces/inkscape"
   id="svg3186"
   version="1.1"
   inkscape:version="0.48.3.1 r9886"
   width="200.34"
   height="105.79"
   xml:space="preserve"
   sodipodi:docname="SIAMSC_Delft.svg"><metadata
     id="metadata3192"><rdf:RDF><cc:Work
         rdf:about=""><dc:format>image/svg+xml</dc:format><dc:type
           rdf:resource="http://purl.org/dc/dcmitype/StillImage" /><dc:title /></cc:Work></rdf:RDF></metadata><defs
     id="defs3190" /><sodipodi:namedview
     pagecolor="#ffffff"
     bordercolor="#666666"
     borderopacity="1"
     objecttolerance="10"
     gridtolerance="10"
     guidetolerance="10"
     inkscape:pageopacity="0"
     inkscape:pageshadow="2"
     inkscape:window-width="1276"
     inkscape:window-height="708"
     id="namedview3188"
     showgrid="false"
     fit-margin-top="0"
     fit-margin-left="0"
     fit-margin-right="0"
     fit-margin-bottom="0"
     inkscape:zoom="2.7172429"
     inkscape:cx="73.093863"
     inkscape:cy="48.869198"
     inkscape:window-x="0"
     inkscape:window-y="27"
     inkscape:window-maximized="0"
     inkscape:current-layer="g3196"
     borderlayer="false" /><g
     id="g3194"
     inkscape:groupmode="layer"
     inkscape:label="siam"
     transform="matrix(1.25,0,0,-1.25,0,107.03997)"><g
   id="g3196"
   style="fill:#000000;stroke:#8700ff;stroke-opacity:0"
   transform="translate(-103.97771,-5.2702976)"><path
   style="fill:#0464ae;fill-opacity:1;stroke:#8700ff;stroke-width:0.30476662999999998;stroke-opacity:0"
   d="m 223.53019,66.327309 c -2.83071,0.01126 -5.7455,-0.138854 -6.55,-0.475 -0.92292,-0.38562 -1.05,-0.38562 -1.05,0 0,0.362975 -0.71844,0.425 -3.975,0.425 l -3.95,0 0,-13.1 c 0,-14.873629 -0.002,-14.963259 -2.025,-15.525 -1.53771,-0.42699 -7.99125,-0.405089 -9.225,0.025 -1.84003,0.641438 -1.85,0.827288 -1.85,14 0,10.439584 -0.0689,12.020212 -0.5,12.75 -1.02172,1.729638 -0.69214,1.70444 -15.125,1.8 l -13.325,0.075 0,-4.125 0,-4.125 9.7,0 9.7,0 0.725,-0.775 c 1.02481,-1.090862 1.05355,-3.470558 0.05,-4.475 -0.68784,-0.688451 -0.78195,-0.698876 -10.975,-0.85 -11.25689,-0.166896 -11.21593,-0.161952 -12.1,-2.025 -0.34326,-0.723359 -0.45,-2.084036 -0.45,-5.525 0,-2.519986 -0.15845,-4.936925 -0.325,-5.375 -0.85339,-2.244566 -7.07162,-2.244566 -7.925,0 -0.18372,0.48322 -0.3,5.994066 -0.3,14.025 l 0,13.225 -4.1,0 -4.125,0 0,-13.65 0,-13.675 -0.775,-0.725 c -0.70247,-0.660512 -1.1218,-0.756356 -3.825,-0.85 l -3.025,-0.1 0,5.85 c 0,4.567491 -0.0931,6.047881 -0.45,6.8 -0.89046,1.876499 -0.81313,1.875431 -12.4,1.975 l -10.55,0.1 -0.8,0.775 c -1.10726,1.107265 -1.11248,3.43752 -0.025,4.525 l 0.75,0.75 11.725,0 11.75,0 0,4.125 0,4.1 -14.85,0 c -16.00503,-0.01853 -16.42629,-0.05225 -17.575,-1.6 -0.60452,-0.814513 -0.63205,-1.3024 -0.725,-9.15 -0.11386,-9.613153 -0.009,-10.26472 1.775,-11.175 1.12502,-0.573941 1.78067,-0.625 11.5,-0.625 10.31567,0 10.32766,0.01037 10.95,-0.675 0.85404,-0.940538 1.09345,-2.16385 0.7,-3.625 -0.55708,-2.06883 -0.75782,-2.1 -13.7,-2.1 l -11.275,0 0,-3.95 0,-3.975 15.975,0 c 14.11953,0 16.0268,0.0518 16.45,0.475 0.43538,0.435381 0.51462,0.435381 0.95,0 0.41846,-0.418463 1.9258,-0.475 11.975,-0.475 9.28967,0 11.61109,0.08579 12.075,0.425 0.48793,0.356788 0.64321,0.356788 1,0 0.62794,-0.627948 29.56579,-0.62827 30.425,0 0.5002,0.365753 0.65281,0.365753 1.175,0 0.95157,-0.666513 18.3415,-0.621352 19.3,0.05 1.57286,1.101668 1.6,1.285072 1.6,15.225 l 0,12.95 2.725,0 c 4.29806,0 3.975,1.19419 3.975,-15.125 l 0,-13.525 4.125,0 4.1,0 0,14.325 0,14.325 2.325,0 c 4.51436,0 4.375,0.383392 4.375,-14.65 l 0,-11.925 1.05,-1.025 1.025,-1.05 12.075,0 12.075,0 0,3.975 0,3.95 -7.775,0 c -8.26555,0 -9.4783,0.173212 -10.175,1.475 -0.2198,0.410713 -0.35,4.582655 -0.35,12.55 0,9.977462 -0.0679,12.094866 -0.45,12.9 -0.82361,1.735612 -1.27621,1.861828 -7.3,1.975 -4.71527,0.08859 -5.61995,0.04582 -6.45,-0.4 -0.89133,-0.478716 -1.02695,-0.478915 -1.675,-0.025 -0.48726,0.341286 -3.2443,0.513737 -6.075,0.525 z m -48.2,-22.6 c 0.90213,0.01295 2.05557,0 3.55,0 6.34343,0 6.47873,-0.01208 7.125,-0.7 1.48612,-1.581904 1.08378,-4.519243 -0.725,-5.275 -0.75439,-0.315206 -2.4556,-0.41268 -6.45,-0.4 -6.51105,0.02066 -7.36933,0.22792 -7.925,1.925 -0.50529,1.543208 -0.21357,3.092055 0.75,3.85 0.53321,0.419425 0.9686,0.561144 3.675,0.6 z"
   id="path3020"
   inkscape:connector-curvature="0" /><text
   xml:space="preserve"
   style="font-size:40px;font-style:normal;font-weight:normal;line-height:125%;letter-spacing:0px;word-spacing:0px;fill:#000000;fill-opacity:1;stroke:#8700ff;stroke-opacity:0;font-family:Sans"
   x="38.476788"
   y="101.50318"
   id="text3025"
   sodipodi:linespacing="125%"
   transform="matrix(0.8,0,0,-0.8,0,64.830845)"><tspan
     sodipodi:role="line"
     id="tspan3027"
     x="38.476788"
     y="101.50318" /></text>








</g><path
   inkscape:connector-curvature="0"
   d="m 57.927139,72.467731 c -1.680948,-0.527815 -3.417798,-0.101403 -3.412598,2.142461 0.0052,3.428198 8.053731,6.30258 9.166563,9.299166 0.278207,0.746222 0.293808,1.361139 -0.0611,1.340339 -0.258708,-0.0156 -0.0559,-0.386111 -0.620118,-0.954228 -3.330695,-3.331995 -8.916955,-3.326795 -13.208377,-5.24565 -2.80808,-1.264936 -11.045116,-5.140347 -9.145762,-13.788195 0.0858,-0.405611 0.33541,-1.782351 0.583717,-1.782351 0.289908,0 0.289908,0.817724 0.279508,1.808352 -0.0611,5.149448 6.033473,6.585989 8.01863,9.947885 0.239207,0.401711 0.650018,0.964628 0.746221,0.70592 0.0455,-0.127403 0.0156,-0.314609 -0.0663,-0.676019 -0.618818,-2.762579 -3.5088,-4.53453 -2.691077,-6.509286 1.060831,-2.564974 4.128917,-0.655219 5.067544,0.994528 0.254807,0.452413 0.391311,0.741021 0.559016,0.68642 0.132604,-0.0468 0.127404,-0.564217 0.0455,-1.03613 -0.501814,-2.971885 -1.188234,-4.642433 -3.365795,-6.337681 -0.69162,-0.538216 -1.788851,-0.655219 -1.645847,-1.072531 0.0351,-0.106603 0.507015,-0.0962 0.884025,-0.0559 5.798165,0.371811 10.643404,7.206107 11.933041,11.670434 0.132603,0.314609 0.172905,0.609718 0.0312,0.721521 -0.178106,0.131304 -0.431613,-0.178105 -0.68642,-0.406912 -0.664319,-0.578516 -1.574345,-1.188234 -2.411569,-1.452141"
   style="fill:#050301;fill-opacity:1;fill-rule:nonzero;stroke:none"
   id="path3290" /><text
   xml:space="preserve"
   style="font-size:13px;font-style:normal;font-weight:normal;line-height:125%;letter-spacing:0px;word-spacing:0px;fill:#000000;fill-opacity:1;stroke:none;font-family:Sans"
   x="8.000124"
   y="82.170586"
   id="text2995"
   sodipodi:linespacing="125%"
   transform="matrix(0.8,0,0,-0.8,0,85.631976)"><tspan
     sodipodi:role="line"
     id="tspan2997"
     x="8.000124"
     y="82.170586" /></text>







<text
   xml:space="preserve"
   style="font-size:27.47405624px;font-style:normal;font-weight:normal;line-height:125%;letter-spacing:0px;word-spacing:0px;fill:#000000;fill-opacity:1;stroke:none;font-family:Sans"
   x="0.37213981"
   y="-14.100335"
   id="text2999"
   sodipodi:linespacing="125%"
   transform="scale(0.9960707,-1.0039448)"><tspan
     sodipodi:role="line"
     id="tspan3001"
     x="0.37213981"
     y="-14.100335"
     style="font-size:11.19999981px;font-weight:normal;-inkscape-font-specification:Sans"><tspan
       style="font-size:11.60000038px"
       id="tspan3772">Student Chapter at </tspan><tspan
       style="font-size:11.60000038px;font-weight:bold;-inkscape-font-specification:Sans Bold"
       id="tspan2999">T<tspan
   style="font-size:11.60000038000000089px;fill:#00a6d6;fill-opacity:1"
   id="tspan2994">U</tspan></tspan><tspan
       style="font-size:11.60000038px"
       id="tspan3774">Delft </tspan></tspan><tspan
     sodipodi:role="line"
     x="0.37213981"
     y="0.39966536"
     id="tspan3003"
     style="font-size:10.98962116px;font-weight:bold;-inkscape-font-specification:Sans Bold" /></text>







</g></svg>