<?xml version="1.0" encoding="UTF-8" standalone="no"?>
<!-- Created with Inkscape (http://www.inkscape.org/) -->

<svg
   xmlns:dc="http://purl.org/dc/elements/1.1/"
   xmlns:cc="http://creativecommons.org/ns#"
   xmlns:rdf="http://www.w3.org/1999/02/22-rdf-syntax-ns#"
   xmlns:svg="http://www.w3.org/2000/svg"
   xmlns="http://www.w3.org/2000/svg"
   xmlns:sodipodi="http://sodipodi.sourceforge.net/DTD/sodipodi-0.dtd"
   xmlns:inkscape="http://www.inkscape.org/namespaces/inkscape"
   id="svg3186"
   version="1.1"
   inkscape:version="0.48.4 r9939"
   width="197.34375"
   height="79.788559"
   xml:space="preserve"
   sodipodi:docname="siam.pdf"><metadata
     id="metadata3192"><rdf:RDF><cc:Work
         rdf:about=""><dc:format>image/svg+xml</dc:format><dc:type
           rdf:resource="http://purl.org/dc/dcmitype/StillImage" /><dc:title></dc:title></cc:Work></rdf:RDF></metadata><defs
     id="defs3190" /><sodipodi:namedview
     pagecolor="#ffffff"
     bordercolor="#666666"
     borderopacity="1"
     objecttolerance="10"
     gridtolerance="10"
     guidetolerance="10"
     inkscape:pageopacity="0"
     inkscape:pageshadow="2"
     inkscape:window-width="1276"
     inkscape:window-height="761"
     id="namedview3188"
     showgrid="false"
     fit-margin-top="0"
     fit-margin-left="0"
     fit-margin-right="0"
     fit-margin-bottom="0"
     inkscape:zoom="2.6249592"
     inkscape:cx="47.278615"
     inkscape:cy="9.9884824"
     inkscape:window-x="0"
     inkscape:window-y="18"
     inkscape:window-maximized="0"
     inkscape:current-layer="g3196" /><g
     id="g3194"
     inkscape:groupmode="layer"
     inkscape:label="siam"
     transform="matrix(1.25,0,0,-1.25,0,81.038556)"><g
       id="g3196"
       style="fill:#000000"><path
         d="M 0,2.996 0,1 29.863,1 c 1.668,0 2.555,0.441 2.555,1.996 l 0,0.113 0,-0.113 C 32.527,1.441 33.418,1 35.082,1 l 19.875,0 c 1.664,0 2.551,0.441 2.551,1.996 l 0,0.113 0,-0.113 C 57.508,1.441 58.398,1 60.062,1 l 26.422,0 c 1.668,0 2.446,0.441 2.555,1.996 l 0,0.113 0,-0.113 C 89.039,1.441 89.93,1 91.594,1 l 15.543,0 c 1.222,0 2.441,0.887 2.773,1.996 0.223,0.336 0.223,0.777 0.223,1.113 l 0,25.758 4.555,0 c 1.664,0 2.996,-1.336 2.996,-3.109 l 0,-25.758 7.441,0 0,28.867 4.105,0 c 1.665,0 3.11,-1.336 3.11,-3.109 l 0,-22.649 c 0,-0.336 0,-0.777 0.222,-1.113 C 133.004,1.887 134.113,1 135.336,1 l 22.539,0 0,7.328 -15.102,0.11 c -1.664,0 -3.105,1.332 -3.105,2.996 l 0,22.761 c 0,1.664 -1.332,2.996 -3,2.996 l -9.438,0.114 c -1.773,0 -2.55,-1.887 -2.55,-1.887 0,1.664 -0.891,1.887 -2.555,1.887 l -9.437,-0.114 c -1.442,0 -2.555,-1.441 -2.555,-1.441 l 0,1.555 -7.324,0 0,-25.871 c 0,-1.664 -1.336,-2.996 -3.11,-2.996 l -7.551,0 c -1.664,0 -2.996,1.332 -2.996,2.996 l 0,22.761 c 0,1.664 -1.445,2.996 -3.109,2.996 l -25.313,0.114 0,-7.438 17.985,0 c 1.664,0 3.109,-1.336 3.109,-3.109 l 0,-0.777 c 0,-1.668 -1.554,-3.11 -3.219,-3.11 l -17.988,0 c -1.773,0 -3.109,-1.332 -3.109,-2.996 l 0,-8.328 c 0,-1.777 -1.332,-3.109 -3.106,-3.109 l -3.109,0 c -1.668,0 -3,1.332 -3,2.996 l 0,25.871 -7.438,0 0,-25.871 c 0,-1.664 -1.332,-2.996 -2.996,-2.996 l -5.441,0 0,11.437 c 0,1.664 -1.332,2.996 -2.996,2.996 l -18.984,0 c -1.668,0 -3.11,1.442 -3.11,3.11 l 0,0.777 c 0,1.773 1.442,3.109 3.11,3.109 l 21.98,0 0,7.438 L 3.109,37.191 C 1.441,37.191 0,35.859 0,34.195 L 0,17.984 c 0,0 0.223,-1.109 0.777,-1.664 0.446,-0.445 1.778,-0.777 1.778,-0.777 l 19.539,0 c 1.664,0 2.996,-1.441 2.996,-3.109 l 0,-0.887 C 25.09,9.77 23.758,8.438 22.094,8.438 L 0,8.438 z m 67.945,12.547 10.77,0 c 1.664,0 3.109,-1.332 3.109,-3.109 l 0,-1 c 0,-1.664 -1.445,-2.996 -3.109,-2.996 l -10.77,0 c -1.777,0 -3.109,1.332 -3.109,2.996 l 0,1 c 0,1.777 1.332,3.109 3.109,3.109 z"
         style="fill:#000000;fill-opacity:1;fill-rule:evenodd;stroke:none"
         id="path3198"
         inkscape:connector-curvature="0"
         sodipodi:nodetypes="ccssccssscsssccssscscsscccssscscccssccccccccssssscccssssssssssccsscsssssscccscccssssccsssssssss" /><path
         inkscape:connector-curvature="0"
         d="m 37.225528,-48.999488 c 2.489,0 3.844,1.656 3.844,3.977 l 0,11.84 5.301,0 0,-12.106 c -0.055,-5.328 -4.32,-7.422 -9.145,-7.422 -4.828,0 -9.097,2.094 -9.148,7.422 l 0,12.106 5.301,0 0,-11.84 c 0,-2.321 1.355,-3.977 3.847,-3.977"
         style="fill:#00a6d6;fill-opacity:1;fill-rule:nonzero;stroke:none"
         id="path3282" /><path
         inkscape:connector-curvature="0"
         d="m 81.757528,-46.139488 0,1.246 c 0,3.683 -2.086,6.285 -5.86,6.285 -4.215,0 -6.176,-3.262 -6.176,-7.16 0,-3.922 1.7,-6.946 5.965,-6.946 3.184,0 5.512,1.512 5.914,4.536 l -2.652,0 c -0.293,-1.938 -1.273,-2.704 -3.234,-2.704 -2.575,0 -3.426,2.289 -3.426,4.743 l 9.469,0 z m -9.414,1.75 c 0.019,2.078 1.277,3.949 3.371,3.949 2.437,0 3.39,-1.668 3.39,-3.949 l -6.761,0"
         style="fill:#050301;fill-opacity:1;fill-rule:nonzero;stroke:none"
         id="path3284" /><path
         inkscape:connector-curvature="0"
         d="m 84.811528,-33.182488 2.52,0 0,-19.133 -2.52,0 0,19.133 z"
         style="fill:#050301;fill-opacity:1;fill-rule:nonzero;stroke:none"
         id="path3286" /><path
         inkscape:connector-curvature="0"
         d="m 14.343528,-52.315488 5.3,0 0,15.422 5.938,0 0,3.711 -17.1760003,0 0,-3.711 5.9380003,0 0,-15.422"
         style="fill:#050301;fill-opacity:1;fill-rule:nonzero;stroke:none"
         id="path3288" /><path
         inkscape:connector-curvature="0"
         d="m 27.077528,-23.866488 c -1.293,-0.406 -2.629,-0.078 -2.625,1.648 0.004,2.637 6.195,4.848 7.051,7.153 0.214,0.574 0.226,1.047 -0.047,1.031 -0.199,-0.012 -0.043,-0.297 -0.477,-0.734 -2.562,-2.563 -6.859,-2.559 -10.16,-4.035 -2.16,-0.973 -8.496,-3.954 -7.035,-10.606 0.066,-0.312 0.258,-1.371 0.449,-1.371 0.223,0 0.223,0.629 0.215,1.391 -0.047,3.961 4.641,5.066 6.168,7.652 0.184,0.309 0.5,0.742 0.574,0.543 0.035,-0.098 0.012,-0.242 -0.051,-0.52 -0.476,-2.125 -2.699,-3.488 -2.07,-5.007 0.816,-1.973 3.176,-0.504 3.898,0.765 0.196,0.348 0.301,0.57 0.43,0.528 0.102,-0.036 0.098,-0.434 0.035,-0.797 -0.386,-2.286 -0.914,-3.571 -2.589,-4.875 -0.532,-0.414 -1.376,-0.504 -1.266,-0.825 0.027,-0.082 0.39,-0.074 0.68,-0.043 4.46,0.286 8.187,5.543 9.179,8.977 0.102,0.242 0.133,0.469 0.024,0.555 -0.137,0.101 -0.332,-0.137 -0.528,-0.313 -0.511,-0.445 -1.211,-0.914 -1.855,-1.117"
         style="fill:#050301;fill-opacity:1;fill-rule:nonzero;stroke:none"
         id="path3290-5" /><path
         inkscape:connector-curvature="0"
         d="m 115.09353,-37.729488 c 1.394,0 1.964,0.816 1.964,2.066 0,1.465 -0.859,2.11 -2.269,2.07 l -0.699,0 0,-4.136 1.004,0 z m -0.11,4.547 c 1.629,0 2.555,-0.836 2.555,-2.481 0,-1.64 -0.926,-2.48 -2.555,-2.48 l -1.344,0 0,4.961 1.344,0"
         style="fill:#050301;fill-opacity:1;fill-rule:nonzero;stroke:none"
         id="path3292" /><path
         inkscape:connector-curvature="0"
         d="m 120.78853,-36.136488 c -0.047,0.668 -0.406,1.168 -1.121,1.168 -0.672,0 -1.032,-0.562 -1.086,-1.168 l 2.207,0 z m -2.219,-0.378 c 0.012,-0.735 0.348,-1.352 1.195,-1.352 0.489,0 0.891,0.348 0.996,0.824 l 0.434,0 c -0.215,-0.824 -0.73,-1.203 -1.562,-1.203 -1.032,0 -1.512,0.887 -1.512,1.828 0,0.934 0.515,1.828 1.539,1.828 1.156,0 1.574,-0.847 1.574,-1.925 l -2.664,0"
         style="fill:#050301;fill-opacity:1;fill-rule:nonzero;stroke:none"
         id="path3294" /><path
         inkscape:connector-curvature="0"
         d="m 121.97553,-33.178488 0.41,0 0,-4.961 -0.41,0 0,4.961 z"
         style="fill:#050301;fill-opacity:1;fill-rule:nonzero;stroke:none"
         id="path3296" /><path
         inkscape:connector-curvature="0"
         d="m 123.70653,-38.139488 0,3.07 -0.696,0 0,0.375 0.696,0 0,0.738 c 0,0.59 0.238,0.86 0.832,0.86 0.129,0 0.265,-0.051 0.39,-0.079 l 0,-0.328 c -0.082,0.012 -0.171,0.028 -0.253,0.028 -0.563,0 -0.579,-0.282 -0.559,-0.778 l 0,-0.441 0.785,0 0,-0.375 -0.785,0 0,-3.07 -0.41,0"
         style="fill:#050301;fill-opacity:1;fill-rule:nonzero;stroke:none"
         id="path3298" /><path
         inkscape:connector-curvature="0"
         d="m 125.87053,-35.069488 -0.688,0 0,0.375 0.688,0 0,0.738 0.414,0.18 0,-0.918 0.785,0 0,-0.375 -0.785,0 0,-2.309 c -0.008,-0.316 0.156,-0.488 0.473,-0.488 0.125,0 0.25,0.008 0.359,0.039 l 0,-0.355 c -0.133,-0.036 -0.281,-0.063 -0.418,-0.063 -0.875,0 -0.828,0.559 -0.828,1.024 l 0,2.152"
         style="fill:#050301;fill-opacity:1;fill-rule:nonzero;stroke:none"
         id="path3300" /><path
         inkscape:connector-curvature="0"
         d="m 114.08953,-40.268488 0,-3.207 c 0.035,-0.903 0.55,-1.446 1.367,-1.446 0.816,0 1.332,0.543 1.367,1.446 l 0,3.207 0.445,0 0,-3.215 c -0.011,-1.063 -0.609,-1.848 -1.812,-1.848 -1.203,0 -1.801,0.785 -1.817,1.848 l 0,3.215 0.45,0"
         style="fill:#050301;fill-opacity:1;fill-rule:nonzero;stroke:none"
         id="path3302" /><path
         inkscape:connector-curvature="0"
         d="m 118.56153,-45.229488 -0.414,0 0,2.676 c 0,0.265 -0.019,0.539 -0.031,0.773 l 0.422,0 0.023,-0.508 0.012,-0.012 c 0.242,0.426 0.633,0.625 1.082,0.625 1.125,0 1.215,-0.996 1.215,-1.398 l 0,-2.156 -0.414,0 0,2.226 c 0,0.598 -0.344,0.95 -0.906,0.95 -0.68,0 -0.989,-0.571 -0.989,-1.188 l 0,-1.988"
         style="fill:#050301;fill-opacity:1;fill-rule:nonzero;stroke:none"
         id="path3304" /><path
         inkscape:connector-curvature="0"
         d="m 122.21053,-41.780488 0,-3.449 -0.414,0 0,3.449 0.414,0 z m 0.035,0.996 -0.485,0 0,0.516 0.485,0 0,-0.516"
         style="fill:#050301;fill-opacity:1;fill-rule:nonzero;stroke:none"
         id="path3306" /><path
         inkscape:connector-curvature="0"
         d="m 123.31553,-41.780488 1.188,-2.879 1.148,2.879 0.453,0 -1.367,-3.449 -0.469,0 -1.406,3.449 0.453,0"
         style="fill:#050301;fill-opacity:1;fill-rule:nonzero;stroke:none"
         id="path3308" /><path
         inkscape:connector-curvature="0"
         d="m 129.03853,-43.221488 c -0.047,0.668 -0.406,1.168 -1.121,1.168 -0.672,0 -1.032,-0.563 -1.086,-1.168 l 2.207,0 z m -2.219,-0.379 c 0.012,-0.735 0.352,-1.352 1.195,-1.352 0.489,0 0.895,0.348 0.996,0.824 l 0.434,0 c -0.211,-0.824 -0.73,-1.203 -1.559,-1.203 -1.031,0 -1.511,0.887 -1.511,1.828 0,0.934 0.511,1.828 1.535,1.828 1.156,0 1.574,-0.847 1.574,-1.925 l -2.664,0"
         style="fill:#050301;fill-opacity:1;fill-rule:nonzero;stroke:none"
         id="path3310" /><path
         inkscape:connector-curvature="0"
         d="m 130.67553,-45.229488 -0.415,0 0,2.676 c 0.008,0.265 -0.019,0.539 -0.035,0.773 l 0.426,0 0.024,-0.508 0.011,0 c 0.125,0.352 0.434,0.598 0.778,0.613 0.136,0.004 0.273,0 0.414,-0.007 l 0,-0.399 c -0.086,0.008 -0.172,0.028 -0.258,0.028 -0.61,0 -0.934,-0.442 -0.945,-1.098 l 0,-2.078"
         style="fill:#050301;fill-opacity:1;fill-rule:nonzero;stroke:none"
         id="path3312" /><path
         inkscape:connector-curvature="0"
         d="m 133.55753,-41.675488 c 0.657,0 1.203,-0.226 1.262,-0.957 l -0.449,0 c -0.043,0.434 -0.426,0.579 -0.852,0.579 -0.386,0 -0.777,-0.153 -0.777,-0.559 0,-0.508 0.668,-0.461 1.602,-0.789 0.355,-0.125 0.582,-0.434 0.582,-0.805 0,-0.773 -0.719,-1.125 -1.45,-1.125 -0.597,0 -1.285,0.281 -1.297,1.043 l 0.446,0 c 0.035,-0.515 0.488,-0.664 0.957,-0.664 0.437,0 0.898,0.203 0.898,0.688 0,0.492 -0.543,0.574 -1.094,0.699 -0.542,0.133 -1.089,0.289 -1.089,0.926 0,0.714 0.656,0.964 1.261,0.964"
         style="fill:#050301;fill-opacity:1;fill-rule:nonzero;stroke:none"
         id="path3314" /><path
         inkscape:connector-curvature="0"
         d="m 136.13553,-41.780488 0,-3.449 -0.41,0 0,3.449 0.41,0 z m 0.036,0.996 -0.481,0 0,0.516 0.481,0 0,-0.516"
         style="fill:#050301;fill-opacity:1;fill-rule:nonzero;stroke:none"
         id="path3316" /><path
         inkscape:connector-curvature="0"
         d="m 137.54253,-42.155488 -0.688,0 0,0.375 0.688,0 0,0.738 0.414,0.176 0,-0.914 0.781,0 0,-0.375 -0.781,0 0,-2.313 c -0.008,-0.312 0.156,-0.484 0.472,-0.484 0.125,0 0.25,0.004 0.36,0.039 l 0,-0.355 c -0.133,-0.035 -0.281,-0.063 -0.422,-0.063 -0.871,0 -0.824,0.555 -0.824,1.024 l 0,2.152"
         style="fill:#050301;fill-opacity:1;fill-rule:nonzero;stroke:none"
         id="path3318" /><path
         inkscape:connector-curvature="0"
         d="m 139.74153,-41.780488 1.16,-2.883 1.156,2.883 0.446,0 -1.903,-4.766 -0.453,0 0.52,1.317 -1.426,3.449 0.5,0"
         style="fill:#050301;fill-opacity:1;fill-rule:nonzero;stroke:none"
         id="path3320" /><path
         inkscape:connector-curvature="0"
         d="m 146.38553,-42.053488 c -0.832,0 -1.164,-0.813 -1.164,-1.45 0,-0.64 0.332,-1.449 1.164,-1.449 0.829,0 1.161,0.809 1.161,1.449 0,0.637 -0.332,1.45 -1.161,1.45 z m 1.606,-1.45 c 0,-0.906 -0.508,-1.828 -1.606,-1.828 -1.101,0 -1.609,0.922 -1.609,1.828 0,0.907 0.508,1.828 1.609,1.828 1.098,0 1.606,-0.921 1.606,-1.828"
         style="fill:#050301;fill-opacity:1;fill-rule:nonzero;stroke:none"
         id="path3322" /><path
         inkscape:connector-curvature="0"
         d="m 148.95253,-45.229488 0,3.074 -0.692,0 0,0.375 0.692,0 0,0.738 c 0,0.59 0.242,0.86 0.832,0.86 0.133,0 0.269,-0.051 0.391,-0.079 l 0,-0.328 c -0.082,0.012 -0.168,0.028 -0.254,0.028 -0.563,0 -0.575,-0.285 -0.555,-0.778 l 0,-0.441 0.785,0 0,-0.375 -0.785,0 0,-3.074 -0.414,0"
         style="fill:#050301;fill-opacity:1;fill-rule:nonzero;stroke:none"
         id="path3324" /><path
         inkscape:connector-curvature="0"
         d="m 115.24553,-47.768488 -1.606,0 0,0.414 3.629,0 0,-0.414 -1.574,0 0,-4.547 -0.449,0 0,4.547"
         style="fill:#050301;fill-opacity:1;fill-rule:nonzero;stroke:none"
         id="path3326" /><path
         inkscape:connector-curvature="0"
         d="m 119.44853,-50.307488 c -0.047,0.664 -0.406,1.168 -1.117,1.168 -0.676,0 -1.035,-0.567 -1.09,-1.168 l 2.207,0 z m -2.219,-0.379 c 0.012,-0.735 0.352,-1.356 1.196,-1.356 0.488,0 0.894,0.352 0.996,0.828 l 0.433,0 c -0.215,-0.828 -0.726,-1.203 -1.558,-1.203 -1.032,0 -1.512,0.887 -1.512,1.828 0,0.934 0.512,1.825 1.539,1.825 1.152,0 1.57,-0.844 1.57,-1.922 l -2.664,0"
         style="fill:#050301;fill-opacity:1;fill-rule:nonzero;stroke:none"
         id="path3328" /><path
         inkscape:connector-curvature="0"
         d="m 122.91353,-49.925488 c -0.035,0.532 -0.371,0.786 -0.946,0.786 -0.628,0 -1.023,-0.661 -1.023,-1.446 0,-0.789 0.395,-1.457 1.023,-1.457 0.54,0 0.911,0.332 0.946,0.805 l 0.445,0 c -0.109,-0.789 -0.562,-1.18 -1.348,-1.18 -1.031,0 -1.511,0.887 -1.511,1.828 0,0.934 0.515,1.825 1.539,1.825 0.707,0 1.285,-0.426 1.32,-1.161 l -0.445,0"
         style="fill:#050301;fill-opacity:1;fill-rule:nonzero;stroke:none"
         id="path3330" /><path
         inkscape:connector-curvature="0"
         d="m 124.45253,-49.389488 0.012,0 c 0.242,0.425 0.632,0.625 1.078,0.625 1.129,0 1.215,-0.997 1.215,-1.395 l 0,-2.156 -0.411,0 0,2.226 c 0,0.598 -0.343,0.95 -0.906,0.95 -0.683,0 -0.988,-0.571 -0.988,-1.192 l 0,-1.984 -0.414,0 0,4.961 0.414,0 0,-2.035"
         style="fill:#050301;fill-opacity:1;fill-rule:nonzero;stroke:none"
         id="path3332" /><path
         inkscape:connector-curvature="0"
         d="m 127.98753,-52.315488 -0.41,0 0,2.672 c 0,0.269 -0.024,0.543 -0.035,0.777 l 0.425,0 0.02,-0.508 0.016,-0.015 c 0.238,0.425 0.632,0.625 1.078,0.625 1.125,0 1.215,-0.997 1.215,-1.395 l 0,-2.156 -0.411,0 0,2.226 c 0,0.598 -0.343,0.95 -0.906,0.95 -0.683,0 -0.992,-0.571 -0.992,-1.192 l 0,-1.984"
         style="fill:#050301;fill-opacity:1;fill-rule:nonzero;stroke:none"
         id="path3334" /><path
         inkscape:connector-curvature="0"
         d="m 132.66753,-49.139488 c -0.832,0 -1.16,-0.813 -1.16,-1.45 0,-0.64 0.328,-1.453 1.16,-1.453 0.832,0 1.16,0.813 1.16,1.453 0,0.637 -0.328,1.45 -1.16,1.45 z m 1.609,-1.45 c 0,-0.906 -0.512,-1.828 -1.609,-1.828 -1.098,0 -1.61,0.922 -1.61,1.828 0,0.907 0.512,1.825 1.61,1.825 1.097,0 1.609,-0.918 1.609,-1.825"
         style="fill:#050301;fill-opacity:1;fill-rule:nonzero;stroke:none"
         id="path3336" /><path
         inkscape:connector-curvature="0"
         d="m 134.97953,-47.354488 0.414,0 0,-4.961 -0.414,0 0,4.961 z"
         style="fill:#050301;fill-opacity:1;fill-rule:nonzero;stroke:none"
         id="path3338" /><path
         inkscape:connector-curvature="0"
         d="m 137.72153,-49.139488 c -0.832,0 -1.16,-0.813 -1.16,-1.45 0,-0.64 0.328,-1.453 1.16,-1.453 0.832,0 1.161,0.813 1.161,1.453 0,0.637 -0.329,1.45 -1.161,1.45 z m 1.61,-1.45 c 0,-0.906 -0.508,-1.828 -1.61,-1.828 -1.097,0 -1.605,0.922 -1.605,1.828 0,0.907 0.508,1.825 1.605,1.825 1.102,0 1.61,-0.918 1.61,-1.825"
         style="fill:#050301;fill-opacity:1;fill-rule:nonzero;stroke:none"
         id="path3340" /><path
         inkscape:connector-curvature="0"
         d="m 141.44453,-49.139488 c -0.75,0 -1.066,-0.758 -1.066,-1.391 0,-0.629 0.324,-1.395 1.078,-1.395 0.789,0 1.094,0.739 1.094,1.411 0,0.66 -0.364,1.375 -1.106,1.375 z m 1.125,0.273 0.426,0 c -0.012,-0.234 -0.031,-0.508 -0.031,-0.777 l 0,-2.067 c 0,-0.687 0.031,-1.41 -0.731,-1.765 -0.273,-0.133 -0.461,-0.161 -0.785,-0.161 -0.621,0 -1.363,0.215 -1.363,0.93 l 0.445,0 c 0.047,-0.414 0.535,-0.551 0.977,-0.551 0.535,0 1.031,0.379 1.043,0.954 l 0,0.648 -0.012,0 c -0.203,-0.406 -0.676,-0.648 -1.121,-0.648 -1.039,0 -1.485,0.792 -1.485,1.742 0,0.933 0.418,1.797 1.469,1.797 0.504,0 0.859,-0.239 1.137,-0.637 l 0.012,0.027 0.019,0.508"
         style="fill:#050301;fill-opacity:1;fill-rule:nonzero;stroke:none"
         id="path3342" /><path
         inkscape:connector-curvature="0"
         d="m 144.01053,-48.866488 1.165,-2.887 1.152,2.887 0.449,0 -1.906,-4.77 -0.453,0 0.523,1.321 -1.43,3.449 0.5,0"
         style="fill:#050301;fill-opacity:1;fill-rule:nonzero;stroke:none"
         id="path3344" /><path
         inkscape:connector-curvature="0"
         d="m 95.225527,-52.315488 0,11.551 3.075,0 0,1.753 -3.075,0 0,2.149 c 0,1.535 0.742,1.801 2.176,1.801 0.422,0 0.848,-0.055 1.27,-0.078 l 0,2.089 c -0.59,0.133 -1.192,0.266 -1.801,0.266 -2.387,0 -4.164,-1.195 -4.164,-3.742 l 0,-2.485 -2.593999,0 0,-1.753 2.593999,0 0,-11.551 2.519,0"
         style="fill:#050301;fill-opacity:1;fill-rule:nonzero;stroke:none"
         id="path3346" /><path
         inkscape:connector-curvature="0"
         d="m 99.745527,-39.011488 0,-1.753 2.281003,0 0,-8.477 c 0,-1.77 0.024,-3.473 3.766,-3.473 0.582,0 1.129,0.059 1.722,0.161 l 0,1.933 c -0.41,-0.098 -0.925,-0.156 -1.328,-0.156 -0.898,0 -1.64,0.449 -1.64,1.402 l 0,8.61 3.074,0 0,1.753 -3.074,0 0,3.629 -2.52,-0.793 0,-2.839 -2.281003,0.003"
         style="fill:#050301;fill-opacity:1;fill-rule:nonzero;stroke:none"
         id="path3348" /><path
         inkscape:connector-curvature="0"
         d="m 54.327528,-35.460488 3.918,0 c 4.422,0 6.258,-3.336 6.258,-7.289 0,-3.953 -1.836,-7.289 -6.258,-7.289 l -3.918,0 0,14.578 z m -2.656,-16.855 6.574,0 c 8.183,0 9.043,6.926 9.043,9.566 0,2.641 -0.86,9.567 -9.043,9.567 l -6.574,0 0,-19.133"
         style="fill:#050301;fill-opacity:1;fill-rule:nonzero;stroke:none"
         id="path3350" /></g><path
       inkscape:connector-curvature="0"
       d="m 57.622372,52.048366 c -1.680948,-0.527815 -3.417798,-0.101403 -3.412598,2.142461 0.0052,3.428198 8.053731,6.30258 9.166563,9.299166 0.278207,0.746222 0.293808,1.361139 -0.0611,1.340339 -0.258708,-0.0156 -0.0559,-0.386111 -0.620118,-0.954228 -3.330695,-3.331995 -8.916955,-3.326795 -13.208377,-5.24565 -2.80808,-1.264936 -11.045116,-5.140347 -9.145762,-13.788195 0.0858,-0.405611 0.33541,-1.782351 0.583717,-1.782351 0.289908,0 0.289908,0.817724 0.279508,1.808352 -0.0611,5.149448 6.033473,6.585989 8.01863,9.947885 0.239207,0.401711 0.650018,0.964628 0.746221,0.70592 0.0455,-0.127403 0.0156,-0.314609 -0.0663,-0.676019 -0.618818,-2.762579 -3.5088,-4.53453 -2.691077,-6.509286 1.060831,-2.564974 4.128917,-0.655219 5.067544,0.994528 0.254807,0.452413 0.391311,0.741021 0.559016,0.68642 0.132604,-0.0468 0.127404,-0.564217 0.0455,-1.03613 -0.501814,-2.971885 -1.188234,-4.642433 -3.365795,-6.337681 -0.69162,-0.538216 -1.788851,-0.655219 -1.645847,-1.072531 0.0351,-0.106603 0.507015,-0.0962 0.884025,-0.0559 5.798165,0.371811 10.643404,7.206107 11.933041,11.670434 0.132603,0.314609 0.172905,0.609718 0.0312,0.721521 -0.178106,0.131304 -0.431613,-0.178105 -0.68642,-0.406912 -0.664319,-0.578516 -1.574345,-1.188234 -2.411569,-1.452141"
       style="fill:#050301;fill-opacity:1;fill-rule:nonzero;stroke:none"
       id="path3290" /></g></svg>